<svg xmlns="http://www.w3.org/2000/svg" xmlns:xlink="http://www.w3.org/1999/xlink" viewBox="358 73 308 628" aria-hidden="true">
<!-- OLDCARTS Consulting registered trademark — original vector geometry, recolored to currentColor -->
<defs>
<path id="font_O" d="M.36572267 .6767578C.45166017 .6767578 .52612307 .6441701 .5891113 .57899478 .6520996 .5138194 .68359377 .43247477 .68359377 .33496095 .68359377 .23451741 .65185549 .1511383 .5883789 .08482361 .52490237 .018508912 .44807945-.0146484379 .35791017-.0146484379 .2667643-.0146484379 .19018555 .017695109 .12817383 .0823822 .06616211 .14706929 .03515625 .23077393 .03515625 .3334961 .03515625 .43848673 .07096354 .5241394 .14257813 .5904541 .20475261 .6479899 .27913413 .6767578 .36572267 .6767578M.3564453 .64160159C.29720054 .64160159 .24967449 .6196645 .21386719 .5757904 .16927083 .52118429 .14697266 .44122825 .14697266 .33592225 .14697266 .22802226 .17008464 .14498393 .2163086 .08680725 .25179038 .042607625 .29866538 .020507813 .3569336 .020507813 .41910807 .020507813 .47045899 .044718427 .5109863 .09313965 .5515137 .14157105 .57177737 .21795146 .57177737 .32228089 .57177737 .43537904 .5494792 .5197194 .5048828 .5753021 .46907554 .61950179 .41959635 .64160159 .3564453 .64160159Z"/>
<path id="font_C" d="M.6020508 .6767578 .6171875 .45117188H.6020508C.58186849 .5187276 .5530599 .5673523 .515625 .5970459 .4781901 .6267497 .43326823 .64160159 .38085938 .64160159 .33691407 .64160159 .29720054 .6304677 .26171876 .6082001 .22623699 .58594259 .19832357 .55043539 .17797852 .50167849 .15763347 .45293174 .14746094 .39232383 .14746094 .31985475 .14746094 .26005046 .1570638 .20821126 .17626953 .16433716 .19547527 .12046305 .22436524 .08682251 .26293946 .06341553 .30151368 .04001872 .34554038 .028320313 .39501954 .028320313 .43798829 .028320313 .47591148 .037546796 .50878909 .055999757 .5416667 .07446289 .5777995 .11113485 .6171875 .16601563L.6323242 .15625C.5991211 .0971578 .5603841 .053899129 .5161133 .026473999 .47184245-.0009409587 .41927085-.0146484379 .35839845-.0146484379 .24869792-.0146484379 .16373699 .025985718 .103515628 .10725403 .05859375 .16770935 .036132814 .23889669 .036132814 .32081605 .036132814 .3868052 .05094401 .44742839 .080566409 .50268557 .110188808 .5579427 .15096028 .60076907 .20288086 .63116458 .25480143 .66156008 .31152345 .6767578 .37304688 .6767578 .42089845 .6767578 .46809898 .66503909 .51464846 .64160159 .5283203 .6344401 .53808596 .6308594 .5439453 .6308594 .5527344 .6308594 .5603841 .63395187 .56689456 .6401367 .5753581 .6489258 .5813802 .6611328 .58496096 .6767578H.6020508Z"/>
</defs>
<path transform="matrix(1,0,0,-1,468.0488,305.3989)" d="M0 0C1.319-1.667 3.311-2.728 5.839-3.303 8.632 4.509 15.5 7.804 24.48 8.758 21.104 19.367-1.186 4.005 0 0M40.126 20.975C39.262-18.421 39.88-61.375 38.774-103.119 38.245-123.098 35.273-143.335 35.755-162.042 36.027-172.672 36.77-185.36 45.308-190.569 45.104-140.075 45.85-81.419 45.558-29.369 45.455-11.122 46.652 7.158 43.275 23.817 42.276 23.868 41.278 23.919 40.279 23.971 40.229 22.971 40.177 21.974 40.126 20.975M60.076-39.126C61.568-58.389 61.801-81.541 63.741-104.399 65.631-126.647 70.082-148.411 70.555-166.83 71.041-185.687 69.709-208.084 52.428-207.957 41.64-207.874 30.126-195.852 27.434-187.65 24.454-178.569 26.277-164.023 26.382-149.546 26.659-111.349 33.621-66.927 33.471-30.752 25.637-25.324 15.95-23.181 6.121-17.336-1.147-13.014-12.502-5.98-11.831 3.611-10.892 17.039 10.884 23.466 20.459 27.99 33.657 34.226 48.663 43.859 65.374 44.713 76.829 45.299 84.584 39.603 88.729 31.501 96.455 16.4 96.775-35.798 79.001-41.096 72.801-42.944 68.758-41.12 60.076-39.126" fill-rule="evenodd" fill="currentColor"/>
<path transform="matrix(1,0,0,-1,658.2363,387)" stroke-width="12" stroke-linecap="butt" stroke-miterlimit="10" stroke-linejoin="miter" fill="none" stroke="currentColor" d="M0 0-146.236-306-292.472 0-146.236 306 0 0Z"/>
<use xlink:href="#font_O" fill="currentColor" transform="matrix(60.75,0,0,-60.75,416.8984,404.9287)"/>
<use xlink:href="#font_C" fill="currentColor" transform="matrix(60.75,0,0,-60.75,564.82467,404.9287)"/>
</svg>
